<svg y="0px" x="0px" viewBox="0 0 100 99.75" data-name="Layer 1" xmlns="http://www.w3.org/2000/svg" style="max-height: 500px" width="100" height="99.75"><title>leaf 3_leaf 1 copy 2_leaf 2 copy 7</title><path d="M85.15,19.06a11,11,0,0,0,6.45-2,15.71,15.71,0,0,0,5.79-9.63A2,2,0,0,0,97.18,6a1.9,1.9,0,0,0-1.77-1.49,12.65,12.65,0,0,0-9.54,2.63,17.06,17.06,0,0,0-5.49,9h0A23.15,23.15,0,0,0,78.46,3.36,1.81,1.81,0,0,0,75.63,3C73,5.57,70.47,9,69.85,12.73A14.88,14.88,0,0,0,72.11,23c-1.12,1-2.23,2-3.32,3a32.07,32.07,0,0,0-2.46-9,19.36,19.36,0,0,0-8.8-9.18,1.82,1.82,0,0,0-2.46.64c-4.14,8.11.66,18.51,8.16,23.05-1.72,1.75-3.42,3.51-5.1,5.31-1.45-7.93-4.78-15.64-12.58-19.17a1.85,1.85,0,0,0-2.65,1.08c-3.51,8.57,2.27,19.44,10.36,23.44-.4.45-.81.89-1.21,1.35-1.68,1.9-3.33,3.85-5,5.78-2-10.09-6-19.89-15-25.77a1.82,1.82,0,0,0-2.64,1.07C27.39,30.5,29.22,37.07,32,42.41c2.43,4.72,6,9.42,10.6,12.31q-2.91,3.53-5.76,7.11c-2.75-11-7.62-21.77-17.81-27.75a1.83,1.83,0,0,0-2.65,1.08c-1.89,6.49.41,13.5,3.7,19.13,2.95,5.07,7.19,10.13,12.46,13q-3.08,3.95-6.09,7.94C22.87,62.06,17.14,49.28,5.76,41.09a1.81,1.81,0,0,0-2.64,1.08c-1.44,5.86.12,12,2.41,17.45A55.85,55.85,0,0,0,16.2,76,36.87,36.87,0,0,0,22,81.06Q17.6,87,13.24,92.88a1.8,1.8,0,0,0,3.1,1.82q4.15-5.64,8.34-11.27a45.4,45.4,0,0,0,12.08,8.51,48.42,48.42,0,0,0,18.5,5.52,22.17,22.17,0,0,0,9.42-1.23,1.83,1.83,0,0,0,.8-3C56,83.11,42.54,79.22,29.17,77.44q3-4,6.13-8A35.7,35.7,0,0,0,49,79c6.15,2.58,13.31,3.82,19.6,1,1.18-.53,1-2,.36-2.83C61.93,68.18,50.93,64.84,40,63.5c1.62-2,3.26-4.06,4.91-6.06a31.3,31.3,0,0,0,12.89,8.19c5.85,2.07,12.71,2.65,18.31-.45a1.82,1.82,0,0,0,.36-2.82c-6.58-8-16.5-10.55-26.38-11.11q2.89-3.37,5.87-6.69a21.54,21.54,0,0,0,9.24,7.51c4.8,2.12,10.21,2.67,15,.24a1.82,1.82,0,0,0,.65-2.46,20.42,20.42,0,0,0-10-8.62,34.72,34.72,0,0,0-9.76-2.29c1.52-1.61,3.06-3.21,4.61-4.78a23.07,23.07,0,0,0,8.36,6.13c4.8,2.13,10.14,2.77,15,.62a1.82,1.82,0,0,0,.65-2.47C85.83,32,79.12,29.2,72.07,28c.91-.85,1.84-1.71,2.77-2.55a17.1,17.1,0,0,0,8.65,4c4.26.77,8.56-.71,12.57-2,1.16-.37,1.92-2.11.79-3A27.64,27.64,0,0,0,85.15,19.06ZM35.23,40.9c-2-3.82-3.5-8.37-2.92-12.73,6.91,5.66,9.85,14.4,11.47,23A29.1,29.1,0,0,1,35.23,40.9ZM23.32,52.77c-2.47-4.15-4.48-9.22-4-14.15,8.14,5.88,11.92,15.5,14.22,25.1A31.5,31.5,0,0,1,23.32,52.77ZM14.07,67.64A45.3,45.3,0,0,1,6.68,51.5,21.06,21.06,0,0,1,6.19,46c9.43,7.95,14.09,19.86,17.11,31.62A41.34,41.34,0,0,1,14.07,67.64ZM47.9,92.5a52.7,52.7,0,0,1-16.25-7.85,33.72,33.72,0,0,1-4.5-3.86c12.08,1.43,24.39,4.56,33.55,12.82C56.48,94.39,52,93.66,47.9,92.5ZM64.63,77.7c-4.77,1.16-10.18-.22-14.52-2.09-4.5-1.92-9.16-4.81-12.26-8.74C47.72,67.86,57.69,70.42,64.63,77.7ZM58.71,62.16a26.79,26.79,0,0,1-11.46-7.42c9,.2,18.29,1.83,24.87,8.26C67.81,64.44,62.91,63.64,58.71,62.16Zm26.9-49.28a9.56,9.56,0,0,1,1.17-1.62,11.2,11.2,0,0,1,1.49-1.43l.17-.12.47-.32c.27-.17.55-.33.83-.47l.43-.21h0l.19-.08c.33-.11.66-.23,1-.31s.64-.14,1-.21h.09l.17,0,.58,0h.33a13.44,13.44,0,0,1-1.29,3.06c-.19.32-.39.64-.61.95l-.24.32-.25.3a10.07,10.07,0,0,1-.79.81,3.73,3.73,0,0,1-.36.32l-.17.14h0a9.27,9.27,0,0,1-1.73,1l-.21.08-.44.14a8,8,0,0,1-1.05.25l-.25,0-.53.05c-.33,0-.66,0-1,0h-.22A14.5,14.5,0,0,1,85.61,12.88Zm-12.24.54a13.06,13.06,0,0,1,2.88-5.74,19.33,19.33,0,0,1-.5,12.09s0,.06,0,.09l-.87.76A10.94,10.94,0,0,1,73.37,13.42ZM58.84,21.5A13.22,13.22,0,0,1,57.51,12a16.27,16.27,0,0,1,5.71,6.82A29.13,29.13,0,0,1,65.42,28a1.82,1.82,0,0,0-.16.31,2.62,2.62,0,0,0-.38.09A17.83,17.83,0,0,1,58.84,21.5ZM47.66,31.79a14.49,14.49,0,0,1-1.93-9.93,16.81,16.81,0,0,1,6.17,6.79,34.37,34.37,0,0,1,3,10.35A17.72,17.72,0,0,1,47.66,31.79ZM76.51,49.92A14.73,14.73,0,0,1,66.4,48.7a18.26,18.26,0,0,1-7.61-6.36C65.49,42.83,72.34,44.5,76.51,49.92Zm8.82-11.49a16.11,16.11,0,0,1-10-1.51,19.49,19.49,0,0,1-7-5.33l.49-.48C75,31.82,81.33,33.55,85.33,38.43Zm-.88-12.5A13.84,13.84,0,0,1,77.59,23L78.82,22a27.4,27.4,0,0,1,12.67,3.14A16.13,16.13,0,0,1,84.45,25.93Z"/><text font-family="'Helvetica Neue', Helvetica, Arial-Unicode, Arial, Sans-serif" font-weight="bold" font-size="5px" fill="#000000" y="115" x="0">Created by Team Icon</text><text font-family="'Helvetica Neue', Helvetica, Arial-Unicode, Arial, Sans-serif" font-weight="bold" font-size="5px" fill="#000000" y="120" x="0">from the Noun Project</text></svg>